<svg id="visual" viewBox="0 0 1920 1080" width="1920" height="1080" xmlns="http://www.w3.org/2000/svg" xmlns:xlink="http://www.w3.org/1999/xlink" version="1.1"><path d="M0 1066L40 997.8C80 929.7 160 793.3 240 794.7C320 796 400 935 480 962.8C560 990.7 640 907.3 720 836.7C800 766 880 708 960 740.3C1040 772.7 1120 895.3 1200 929.7C1280 964 1360 910 1440 897.7C1520 885.3 1600 914.7 1680 929.3C1760 944 1840 944 1880 944L1920 944L1920 1081L1880 1081C1840 1081 1760 1081 1680 1081C1600 1081 1520 1081 1440 1081C1360 1081 1280 1081 1200 1081C1120 1081 1040 1081 960 1081C880 1081 800 1081 720 1081C640 1081 560 1081 480 1081C400 1081 320 1081 240 1081C160 1081 80 1081 40 1081L0 1081Z" fill="#d0454c"></path><path d="M0 925L40 933.7C80 942.3 160 959.7 240 926.8C320 894 400 811 480 780.7C560 750.3 640 772.7 720 788.8C800 805 880 815 960 852.8C1040 890.7 1120 956.3 1200 949.2C1280 942 1360 862 1440 834C1520 806 1600 830 1680 845.2C1760 860.3 1840 866.7 1880 869.8L1920 873L1920 1081L1880 1081C1840 1081 1760 1081 1680 1081C1600 1081 1520 1081 1440 1081C1360 1081 1280 1081 1200 1081C1120 1081 1040 1081 960 1081C880 1081 800 1081 720 1081C640 1081 560 1081 480 1081C400 1081 320 1081 240 1081C160 1081 80 1081 40 1081L0 1081Z" fill="#ce3a52"></path><path d="M0 1074L40 1031.8C80 989.7 160 905.3 240 903.7C320 902 400 983 480 1015.3C560 1047.7 640 1031.3 720 977.7C800 924 880 833 960 820.5C1040 808 1120 874 1200 900.2C1280 926.3 1360 912.7 1440 912C1520 911.3 1600 923.7 1680 904.8C1760 886 1840 836 1880 811L1920 786L1920 1081L1880 1081C1840 1081 1760 1081 1680 1081C1600 1081 1520 1081 1440 1081C1360 1081 1280 1081 1200 1081C1120 1081 1040 1081 960 1081C880 1081 800 1081 720 1081C640 1081 560 1081 480 1081C400 1081 320 1081 240 1081C160 1081 80 1081 40 1081L0 1081Z" fill="#cb2e59"></path><path d="M0 853L40 874.7C80 896.3 160 939.7 240 940.5C320 941.3 400 899.7 480 900.7C560 901.7 640 945.3 720 963.2C800 981 880 973 960 953.8C1040 934.7 1120 904.3 1200 871C1280 837.7 1360 801.3 1440 800C1520 798.7 1600 832.3 1680 866.5C1760 900.7 1840 935.3 1880 952.7L1920 970L1920 1081L1880 1081C1840 1081 1760 1081 1680 1081C1600 1081 1520 1081 1440 1081C1360 1081 1280 1081 1200 1081C1120 1081 1040 1081 960 1081C880 1081 800 1081 720 1081C640 1081 560 1081 480 1081C400 1081 320 1081 240 1081C160 1081 80 1081 40 1081L0 1081Z" fill="#c72161"></path><path d="M0 879L40 868.8C80 858.7 160 838.3 240 824.5C320 810.7 400 803.3 480 805.7C560 808 640 820 720 859C800 898 880 964 960 997.3C1040 1030.7 1120 1031.3 1200 1018.8C1280 1006.3 1360 980.7 1440 954C1520 927.3 1600 899.7 1680 876C1760 852.3 1840 832.7 1880 822.8L1920 813L1920 1081L1880 1081C1840 1081 1760 1081 1680 1081C1600 1081 1520 1081 1440 1081C1360 1081 1280 1081 1200 1081C1120 1081 1040 1081 960 1081C880 1081 800 1081 720 1081C640 1081 560 1081 480 1081C400 1081 320 1081 240 1081C160 1081 80 1081 40 1081L0 1081Z" fill="#c21469"></path><path d="M0 898L40 924.8C80 951.7 160 1005.3 240 996.7C320 988 400 917 480 912.8C560 908.7 640 971.3 720 994.7C800 1018 880 1002 960 972.5C1040 943 1120 900 1200 914.3C1280 928.7 1360 1000.3 1440 1035.2C1520 1070 1600 1068 1680 1026.3C1760 984.7 1840 903.3 1880 862.7L1920 822L1920 1081L1880 1081C1840 1081 1760 1081 1680 1081C1600 1081 1520 1081 1440 1081C1360 1081 1280 1081 1200 1081C1120 1081 1040 1081 960 1081C880 1081 800 1081 720 1081C640 1081 560 1081 480 1081C400 1081 320 1081 240 1081C160 1081 80 1081 40 1081L0 1081Z" fill="#ba0572"></path><path d="M0 1057L40 1060C80 1063 160 1069 240 1040.2C320 1011.3 400 947.7 480 941.3C560 935 640 986 720 1011.3C800 1036.7 880 1036.3 960 1039.2C1040 1042 1120 1048 1200 1038.5C1280 1029 1360 1004 1440 990.2C1520 976.3 1600 973.7 1680 960.5C1760 947.3 1840 923.7 1880 911.8L1920 900L1920 1081L1880 1081C1840 1081 1760 1081 1680 1081C1600 1081 1520 1081 1440 1081C1360 1081 1280 1081 1200 1081C1120 1081 1040 1081 960 1081C880 1081 800 1081 720 1081C640 1081 560 1081 480 1081C400 1081 320 1081 240 1081C160 1081 80 1081 40 1081L0 1081Z" fill="#b1007b"></path><path d="M0 1054L40 1040C80 1026 160 998 240 974C320 950 400 930 480 933.5C560 937 640 964 720 989.2C800 1014.3 880 1037.7 960 1037C1040 1036.3 1120 1011.7 1200 982C1280 952.3 1360 917.7 1440 905.3C1520 893 1600 903 1680 912.2C1760 921.3 1840 929.7 1880 933.8L1920 938L1920 1081L1880 1081C1840 1081 1760 1081 1680 1081C1600 1081 1520 1081 1440 1081C1360 1081 1280 1081 1200 1081C1120 1081 1040 1081 960 1081C880 1081 800 1081 720 1081C640 1081 560 1081 480 1081C400 1081 320 1081 240 1081C160 1081 80 1081 40 1081L0 1081Z" fill="#a50085"></path><path d="M0 1018L40 1024C80 1030 160 1042 240 1034C320 1026 400 998 480 978.8C560 959.7 640 949.3 720 950.7C800 952 880 965 960 975.5C1040 986 1120 994 1200 987.8C1280 981.7 1360 961.3 1440 961.3C1520 961.3 1600 981.7 1680 1000.3C1760 1019 1840 1036 1880 1044.5L1920 1053L1920 1081L1880 1081C1840 1081 1760 1081 1680 1081C1600 1081 1520 1081 1440 1081C1360 1081 1280 1081 1200 1081C1120 1081 1040 1081 960 1081C880 1081 800 1081 720 1081C640 1081 560 1081 480 1081C400 1081 320 1081 240 1081C160 1081 80 1081 40 1081L0 1081Z" fill="#940091"></path><path d="M0 991L40 985.2C80 979.3 160 967.7 240 962.2C320 956.7 400 957.3 480 959.5C560 961.7 640 965.3 720 982C800 998.7 880 1028.3 960 1029.5C1040 1030.7 1120 1003.3 1200 1005.5C1280 1007.7 1360 1039.3 1440 1053.8C1520 1068.3 1600 1065.7 1680 1058.8C1760 1052 1840 1041 1880 1035.5L1920 1030L1920 1081L1880 1081C1840 1081 1760 1081 1680 1081C1600 1081 1520 1081 1440 1081C1360 1081 1280 1081 1200 1081C1120 1081 1040 1081 960 1081C880 1081 800 1081 720 1081C640 1081 560 1081 480 1081C400 1081 320 1081 240 1081C160 1081 80 1081 40 1081L0 1081Z" fill="#7d009e"></path><path d="M0 981L40 993.3C80 1005.7 160 1030.3 240 1032.2C320 1034 400 1013 480 1001.2C560 989.3 640 986.7 720 999.3C800 1012 880 1040 960 1049.2C1040 1058.3 1120 1048.7 1200 1049.8C1280 1051 1360 1063 1440 1053.8C1520 1044.7 1600 1014.3 1680 1014.7C1760 1015 1840 1046 1880 1061.5L1920 1077L1920 1081L1880 1081C1840 1081 1760 1081 1680 1081C1600 1081 1520 1081 1440 1081C1360 1081 1280 1081 1200 1081C1120 1081 1040 1081 960 1081C880 1081 800 1081 720 1081C640 1081 560 1081 480 1081C400 1081 320 1081 240 1081C160 1081 80 1081 40 1081L0 1081Z" fill="#5b00ab"></path><path d="M0 1042L40 1045.3C80 1048.7 160 1055.3 240 1055C320 1054.7 400 1047.3 480 1042.2C560 1037 640 1034 720 1038.7C800 1043.3 880 1055.7 960 1061.5C1040 1067.3 1120 1066.7 1200 1061.2C1280 1055.7 1360 1045.3 1440 1041.2C1520 1037 1600 1039 1680 1039.8C1760 1040.7 1840 1040.3 1880 1040.2L1920 1040L1920 1081L1880 1081C1840 1081 1760 1081 1680 1081C1600 1081 1520 1081 1440 1081C1360 1081 1280 1081 1200 1081C1120 1081 1040 1081 960 1081C880 1081 800 1081 720 1081C640 1081 560 1081 480 1081C400 1081 320 1081 240 1081C160 1081 80 1081 40 1081L0 1081Z" fill="#0804b8"></path></svg>